<svg xmlns="http://www.w3.org/2000/svg" xmlns:xlink="http://www.w3.org/1999/xlink" viewBox="0 0 307.96 46.89"><defs><style>.cls-1{fill:url(#linear-gradient);}.cls-2{fill:#fff;}.cls-3{fill:#333;}.cls-4{fill:url(#linear-gradient-2);}</style><linearGradient id="linear-gradient" x1="212.29" y1="23.45" x2="307.96" y2="23.45" gradientUnits="userSpaceOnUse"><stop offset="0" stop-color="#915ff2"/><stop offset="1" stop-color="#368eee"/></linearGradient><linearGradient id="linear-gradient-2" x1="143.05" y1="363.52" x2="151.05" y2="369.33" gradientTransform="matrix(1, 0, 0, -1, 0, 400.05)" gradientUnits="userSpaceOnUse"><stop offset="0" stop-color="#915ff2"/><stop offset="0.5" stop-color="#368eee"/><stop offset="1" stop-color="#00ccb6"/></linearGradient></defs><g id="Layer_2" data-name="Layer 2"><g id="Layer_1-2" data-name="Layer 1"><path class="cls-1" d="M308,13.31V33.58a13.31,13.31,0,0,1-13.32,13.31h-69a13.31,13.31,0,0,1-13.31-13.31V13.31A13.31,13.31,0,0,1,225.6,0h69A13.3,13.3,0,0,1,307,8.42,13,13,0,0,1,308,13.31Z"/><path class="cls-2" d="M239.43,21.85h5.32l-2.09,10.36a13.88,13.88,0,0,1-4.42,2.26,17.25,17.25,0,0,1-5.22.8,14.9,14.9,0,0,1-6.58-1.37,10.21,10.21,0,0,1-4.33-3.85,10.66,10.66,0,0,1-1.53-5.72,15.26,15.26,0,0,1,2-7.73,14.08,14.08,0,0,1,5.57-5.41,17.1,17.1,0,0,1,8.27-2,15.84,15.84,0,0,1,6.24,1.12,10,10,0,0,1,4.26,3.27L242.73,17a7.58,7.58,0,0,0-2.84-2.14,9.65,9.65,0,0,0-3.74-.66,9.94,9.94,0,0,0-5.07,1.27A8.81,8.81,0,0,0,227.69,19a10.24,10.24,0,0,0-1.21,5,5.93,5.93,0,0,0,1.89,4.63,7.83,7.83,0,0,0,5.41,1.7,9.77,9.77,0,0,0,4.17-.9Z"/><path class="cls-2" d="M270.36,11.3a7,7,0,0,1,2.57,5.77,10.13,10.13,0,0,1-1.49,5.52,9.56,9.56,0,0,1-4.25,3.61,15.43,15.43,0,0,1-6.49,1.26h-5.61l-1.36,6.94h-5.86l5-25.17h10.18C266.22,9.23,268.64,9.92,270.36,11.3Zm-4.91,10.09A4.73,4.73,0,0,0,267,17.57a3.15,3.15,0,0,0-1.2-2.69,5.74,5.74,0,0,0-3.47-.9h-4.57L256,22.72H261A6.81,6.81,0,0,0,265.45,21.39Z"/><path class="cls-2" d="M289.75,14.1v0a8.65,8.65,0,0,0-4.31,1,3,3,0,0,0-1.73,2.68,2.15,2.15,0,0,0,.73,1.68,5.25,5.25,0,0,0,1.87,1.09c.75.27,1.8.6,3.18,1a38.87,38.87,0,0,1,4.77,1.59,8.53,8.53,0,0,1,3.19,2.35,6,6,0,0,1,1.33,4.06A8.94,8.94,0,0,1,297.05,35a11.35,11.35,0,0,1-4.92,3.6,19,19,0,0,1-6.3,1.26v0H267.64a2.6,2.6,0,0,0-1.82,1.06,2,2,0,0,0-.39,1.71,5,5,0,0,0,.81,1.9c.39.59,1,1.38,1.71,2.35h-7.4c-.36-.55-.68-1.06-.95-1.53a8.41,8.41,0,0,1-1.11-3.71,6.12,6.12,0,0,1,1.39-4,8.61,8.61,0,0,1,4.42-3.2,9.78,9.78,0,0,1,4.77-.2h16.76a9,9,0,0,0,4.21-.94,2.9,2.9,0,0,0,1.7-2.61,2.23,2.23,0,0,0-1.35-2.06,23.29,23.29,0,0,0-4.3-1.55,41.44,41.44,0,0,1-4.82-1.67A8.77,8.77,0,0,1,278,23a6.35,6.35,0,0,1-1.36-4.26,8.91,8.91,0,0,1,1.71-5.43,10.8,10.8,0,0,1,4.86-3.6,18.72,18.72,0,0,1,6.51-1.25H307a13,13,0,0,1,.94,4.89v.79Z"/><g id="Layer_1-2-2" data-name="Layer 1-2"><path class="cls-3" d="M134.49,34.18a11.8,11.8,0,0,1,20-8.46q.11-1.06.12-2.13a19.12,19.12,0,1,0-19.12,19.1h0a18.07,18.07,0,0,0,2.44-.16A11.78,11.78,0,0,1,134.49,34.18Z"/><circle class="cls-4" cx="146.29" cy="34.18" r="4.94"/><path class="cls-3" d="M90,43.15H77.52l-4-5.9a5,5,0,0,0-6.93-1.38,5.18,5.18,0,0,0-1.4,1.4l-3.88,5.88H49L63.16,23.51,49.61,4.31H61.82l3.71,5.37a5.07,5.07,0,0,0,4.15,2.15,5,5,0,0,0,4.1-2.19l3.64-5.33H89.1L75.58,23.06Z"/><path class="cls-3" d="M97.29,43.48h6.28a5.24,5.24,0,0,0,5.24-5.23V4h-6.5a5,5,0,0,0-5,5Z"/><path class="cls-3" d="M200,4.31V43.15h-9L181,31.06a4.15,4.15,0,0,0-7.35,2.65v8.12a1.32,1.32,0,0,1-1.32,1.32h-9.31V4.31H172l17.36,21v-21Z"/><path class="cls-3" d="M28.6,4H17.42L0,43.49H6.94a7.24,7.24,0,0,0,6.62-4.34l2.15-4.85H30.12l2.16,4.84a7.25,7.25,0,0,0,6.62,4.35h7.2ZM19,26.81l3.74-8.51.55.58.63,1.39,2.9,6.54Z"/></g></g></g></svg>